<svg aria-hidden="true" style="width:0;height:0;position:absolute;overflow:hidden" xmlns="http://www.w3.org/2000/svg"><defs><symbol id="icon-calendar" viewBox="0 0 32 32"><path fill="#fff" style="fill:var(--color1,#fff)" d="M8 1a1 1 0 0 0-2 0v1H4a4 4 0 0 0-4 4v2h32V6a4 4 0 0 0-4-4h-2V1a1 1 0 0 0-2 0v1H8V1zm24 27V10H0v18a4 4 0 0 0 4 4h24a4 4 0 0 0 4-4zM19 14h2a1 1 0 0 1 1 1v2.002a.998.998 0 0 1-.998.998H18.998a.998.998 0 0 1-.998-.998V15a1 1 0 0 1 1-1zm6 0h2a1 1 0 0 1 1 1v2.002a.998.998 0 0 1-.998.998H24.998a.998.998 0 0 1-.998-.998V15a1 1 0 0 1 1-1zM4 21a1 1 0 0 1 1-1h2a1 1 0 0 1 1 1v2a1 1 0 0 1-1 1H5a1 1 0 0 1-1-1v-2zm7-1h2a1 1 0 0 1 1 1v2a1 1 0 0 1-1 1h-2a1 1 0 0 1-1-1v-2a1 1 0 0 1 1-1z"/></symbol><symbol id="icon-list-left" viewBox="0 0 32 32"><path fill="#fff" style="fill:var(--color1,#fff)" d="M0 8h16c8.837 0 16 7.163 16 16H16C7.163 24 0 16.837 0 8z"/></symbol><symbol id="icon-list-right" viewBox="0 0 32 32"><path fill="#fff" style="fill:var(--color1,#fff)" d="M32 8H16C7.163 8 0 15.163 0 24h16c8.837 0 16-7.163 16-16z"/></symbol><symbol id="icon-logo" viewBox="0 0 32 32"><path fill="#fff" style="fill:var(--color1,#fff)" d="M14.496 31.968c-.01-.016-.197-.033-.418-.038a7.657 7.657 0 0 1-.909-.093l.043.006c-2.243-.373-4.509-1.187-6.019-2.16-.279-.18-.343-.249-.297-.323.034-.053.144-.027.79.196.309.106.789.242 1.067.302.469.101.565.109 1.376.109 1.219 0 1.636-.069 2.962-.49 2.527-.801 3.159-.805 5.67-.032 1.442.444 2.009.542 3.131.542.817 0 1.584-.144 2.507-.47.245-.086.492-.166.548-.177.11-.02.163.026.13.113-.051.133-1.34.853-2.132 1.19-1.543.658-3.937 1.268-5.041 1.284-.224.004-.418.022-.43.042-.026.043-2.953.043-2.979 0zm-5.781-3.129c-2.009-.297-3.75-1.205-5.235-2.731-.809-.832-1.406-1.693-2.009-2.898C.683 21.635.122 19.602.025 17.976c-.033-.555-.032-3.637.001-4.165.068-1.074.46-2.651 1.001-4.019a22.88 22.88 0 0 1 1.02-2.122l.191-.329c.53-.921 1.548-2.211 2.448-3.102a15.352 15.352 0 0 1 2.479-2.014l.059-.036c.288-.187.567-.37.62-.406.197-.134 1.391-.739 1.827-.925.967-.413 2.071-.774 2.401-.786.107-.004.204-.021.215-.039S12.398 0 12.51 0c.171 0 .204.011.208.074.005.06-.056.093-.331.178-1.15.355-2.471.984-3.744 1.782-.957.599-2.079 1.538-3.006 2.514-2.376 2.501-3.759 5.509-4.179 9.093-.082.699-.093 2.553-.019 3.211.455 4.044 2.203 7.248 4.795 8.791.968.576 2.031.881 3.219.923.963.034 1.579-.093 3.32-.681 1.637-.554 2.081-.671 2.798-.739a5.425 5.425 0 0 1 1.601.116c.331.072 1.71.501 2.46.767 1.155.409 2.011.567 2.889.537 1.44-.051 2.7-.489 3.845-1.338 2.246-1.664 3.763-4.713 4.167-8.376.066-.596.066-2.408.001-3.022-.289-2.708-1.088-5.005-2.473-7.109a16.463 16.463 0 0 0-5.424-5.113C21.761 1.103 20.433.513 19.583.25c-.269-.084-.339-.121-.339-.178 0-.062.029-.073.191-.073.105 0 .201.014.211.032s.119.036.24.041c.543.022 2.275.666 3.454 1.284 3.769 1.976 6.523 5.205 7.912 9.275.362 1.06.66 2.427.673 3.083.004.203.027.394.051.424.034.044.032.049-.009.025-.043-.026-.044-.016-.009.051.054.101.034 2.947-.028 3.899-.046.713-.171 1.426-.414 2.363-.814 3.133-2.501 5.629-4.789 7.086-.816.518-2.016 1.004-2.95 1.193-.391.079-.554.09-1.393.09-1.266 0-1.88-.105-3.606-.613-1.815-.534-2.051-.584-2.792-.584s-.978.05-2.792.585c-1.665.491-2.247.594-3.451.612-.501.007-.964.006-1.028-.004zm.136-3.577c-.776-.085-1.404-.272-2.152-.64-1.011-.499-1.863-1.281-2.597-2.384-.347-.521-.652-1.078-.626-1.145.042-.109.189-.055.411.15.485.448 1.596 1.266 1.72 1.266.021 0 .067.025.1.055.083.075.731.356 1.089.474a6.634 6.634 0 0 0 2.423.284c.911-.071 1.56-.225 2.579-.609 1.605-.606 2.462-.817 3.657-.901.89-.064 1.933.037 2.877.277.456.116.962.282 1.725.565.827.307 1.287.445 1.827.549 1.809.347 3.472.027 4.959-.954.451-.297 1.099-.809 1.336-1.053.158-.164.315-.208.356-.101.04.104-.539 1.081-.989 1.667a8.857 8.857 0 0 1-1.11 1.142 6.446 6.446 0 0 1-2.83 1.303c-.482.092-1.636.093-2.172.002a10.158 10.158 0 0 1-1.919-.546c-1.562-.594-2.35-.766-3.509-.768-.498 0-.775.02-1.136.082-.86.148-1.2.25-2.671.796a8.248 8.248 0 0 1-1.552.422l-.051.007c-.445.073-1.346.105-1.744.061z"/><path fill="#fff" style="fill:var(--color1,#fff)" d="M13.291 18.938 9.297 9.399c-.283-.657-.567-1.112-.85-1.365a1.756 1.756 0 0 0-.972-.448l-.009-.001v-.346c.049 0 .173-.006.37-.018.185-.011.321-.017.407-.017.432 0 .875.046 1.331.138.456.081.887.276 1.294.588s.752.8 1.036 1.469l2.495 5.961 1.664-4.424-.647-1.538c-.284-.657-.592-1.112-.925-1.365a2.064 2.064 0 0 0-1.035-.449v-.346c.049 0 .16-.006.333-.018s.302-.017.388-.017c.431 0 .875.046 1.331.138s.887.293 1.294.605c.407.3.752.783 1.036 1.452l2.644 6.29 3.162-8.311h.888L20.15 18.938h-.739l-2.848-6.774-2.533 6.773h-.739z"/></symbol><symbol id="icon-map-pin" viewBox="0 0 32 32"><path fill="#fff" style="fill:var(--color1,#fff)" d="M16 2C9.928 2.007 5.007 6.928 5 12.999v.017c0 2.486.833 4.777 2.235 6.61l-.019-.026s.301.395.349.453L16 30l8.438-9.952c.045-.054.346-.448.346-.448v-.003A10.809 10.809 0 0 0 27 13.014v-.015V13c-.007-6.072-4.928-10.993-10.999-11H16zm0 15a4 4 0 0 1 0-8 4 4 0 0 1 0 8z"/></symbol><symbol id="icon-subway" viewBox="0 0 32 32"><path fill="#fff" style="fill:var(--color1,#fff)" d="M9.643 8.587c-.48-1.624-1.782-1.446-2.672-.688-2.192 2.024-5.05 6.277-3.221 12.4 1.53 5.182 7.898 8.501 7.898 8.501H4.224S.392 24.506.048 19.451C-.387 13.062 2.171 9.035 5.141 6.406c2.79-2.47 5.442-3.205 5.442-3.205l5.418 17.76 5.421-17.76s2.65.736 5.437 3.205c2.97 2.627 5.528 6.656 5.094 13.046-.342 5.053-4.176 9.347-4.176 9.347h-7.424s6.368-3.317 7.899-8.504c1.827-6.122-1.027-10.373-3.221-12.4-.891-.757-2.192-.934-2.672.69l-6.357 20.048L9.644 8.585z"/></symbol></defs></svg>