<svg aria-hidden="true" style="position: absolute; width: 0; height: 0; overflow: hidden;" version="1.1" xmlns="http://www.w3.org/2000/svg" xmlns:xlink="http://www.w3.org/1999/xlink">
<defs>
<symbol id="icon-calendar" viewBox="0 0 32 32">
<path fill="#fff" style="fill: var(--color1, #fff)" d="M8 1c0-0.552-0.448-1-1-1s-1 0.448-1 1v0 1h-2c-2.209 0-4 1.791-4 4v0 2h32v-2c0-2.209-1.791-4-4-4v0h-2v-1c0-0.552-0.448-1-1-1s-1 0.448-1 1v0 1h-16v-1zM32 28v-18h-32v18c0 2.209 1.791 4 4 4v0h24c2.209 0 4-1.791 4-4v0zM19 14h2c0.552 0 1 0.448 1 1v0 2c0 0 0 0.001 0 0.002 0 0.551-0.447 0.998-0.998 0.998-0.001 0-0.001 0-0.002 0h-2c-0 0-0.001 0-0.002 0-0.551 0-0.998-0.447-0.998-0.998 0-0.001 0-0.001 0-0.002v0-2c0-0.552 0.448-1 1-1v0zM25 14h2c0.552 0 1 0.448 1 1v0 2c0 0 0 0.001 0 0.002 0 0.551-0.447 0.998-0.998 0.998-0.001 0-0.001 0-0.002 0h-2c-0 0-0.001 0-0.002 0-0.551 0-0.998-0.447-0.998-0.998 0-0.001 0-0.001 0-0.002v0-2c0-0.552 0.448-1 1-1v0zM4 21c0-0.552 0.448-1 1-1v0h2c0.552 0 1 0.448 1 1v0 2c0 0.552-0.448 1-1 1v0h-2c-0.552 0-1-0.448-1-1v0-2zM11 20h2c0.552 0 1 0.448 1 1v0 2c0 0.552-0.448 1-1 1v0h-2c-0.552 0-1-0.448-1-1v0-2c0-0.552 0.448-1 1-1v0z"></path>
</symbol>
<symbol id="icon-list-left" viewBox="0 0 32 32">
<path  d="M0 8h16c8.837 0 16 7.163 16 16h-16c-8.837 0-16-7.163-16-16z"></path>
</symbol>
<symbol id="icon-list-right" viewBox="0 0 32 32">
<path  d="M32 8h-16c-8.837 0-16 7.163-16 16h16c8.837 0 16-7.163 16-16z"></path>
</symbol>
<symbol id="icon-logo" viewBox="0 0 32 32">
<path fill="#fff" style="fill: var(--color1, #fff)" d="M14.496 31.968c-0.010-0.016-0.197-0.033-0.418-0.038-0.318-0.014-0.616-0.045-0.909-0.093l0.043 0.006c-2.243-0.373-4.509-1.187-6.019-2.16-0.279-0.18-0.343-0.249-0.297-0.323 0.034-0.053 0.144-0.027 0.79 0.196 0.309 0.106 0.789 0.242 1.067 0.302 0.469 0.101 0.565 0.109 1.376 0.109 1.219 0 1.636-0.069 2.962-0.49 2.527-0.801 3.159-0.805 5.67-0.032 1.442 0.444 2.009 0.542 3.131 0.542 0.817 0 1.584-0.144 2.507-0.47 0.245-0.086 0.492-0.166 0.548-0.177 0.11-0.020 0.163 0.026 0.13 0.113-0.051 0.133-1.34 0.853-2.132 1.19-1.543 0.658-3.937 1.268-5.041 1.284-0.224 0.004-0.418 0.022-0.43 0.042-0.026 0.043-2.953 0.043-2.979 0zM8.715 28.839c-2.009-0.297-3.75-1.205-5.235-2.731-0.809-0.832-1.406-1.693-2.009-2.898-0.788-1.575-1.349-3.608-1.446-5.234-0.033-0.555-0.032-3.637 0.001-4.165 0.068-1.074 0.46-2.651 1.001-4.019 0.207-0.524 0.757-1.668 1.020-2.122l0.191-0.329c0.53-0.921 1.548-2.211 2.448-3.102 0.753-0.754 1.583-1.43 2.479-2.014l0.059-0.036c0.288-0.187 0.567-0.37 0.62-0.406 0.197-0.134 1.391-0.739 1.827-0.925 0.967-0.413 2.071-0.774 2.401-0.786 0.107-0.004 0.204-0.021 0.215-0.039s0.111-0.033 0.223-0.033c0.171 0 0.204 0.011 0.208 0.074 0.005 0.060-0.056 0.093-0.331 0.178-1.15 0.355-2.471 0.984-3.744 1.782-0.957 0.599-2.079 1.538-3.006 2.514-2.376 2.501-3.759 5.509-4.179 9.093-0.082 0.699-0.093 2.553-0.019 3.211 0.455 4.044 2.203 7.248 4.795 8.791 0.968 0.576 2.031 0.881 3.219 0.923 0.963 0.034 1.579-0.093 3.32-0.681 1.637-0.554 2.081-0.671 2.798-0.739 0.478-0.045 1.045-0.004 1.601 0.116 0.331 0.072 1.71 0.501 2.46 0.767 1.155 0.409 2.011 0.567 2.889 0.537 1.44-0.051 2.7-0.489 3.845-1.338 2.246-1.664 3.763-4.713 4.167-8.376 0.066-0.596 0.066-2.408 0.001-3.022-0.289-2.708-1.088-5.005-2.473-7.109-1.36-2.065-3.286-3.881-5.424-5.113-0.876-0.505-2.204-1.095-3.054-1.358-0.269-0.084-0.339-0.121-0.339-0.178 0-0.062 0.029-0.073 0.191-0.073 0.105 0 0.201 0.014 0.211 0.032s0.119 0.036 0.24 0.041c0.543 0.022 2.275 0.666 3.454 1.284 3.769 1.976 6.523 5.205 7.912 9.275 0.362 1.060 0.66 2.427 0.673 3.083 0.004 0.203 0.027 0.394 0.051 0.424 0.034 0.044 0.032 0.049-0.009 0.025-0.043-0.026-0.044-0.016-0.009 0.051 0.054 0.101 0.034 2.947-0.028 3.899-0.046 0.713-0.171 1.426-0.414 2.363-0.814 3.133-2.501 5.629-4.789 7.086-0.816 0.518-2.016 1.004-2.95 1.193-0.391 0.079-0.554 0.090-1.393 0.090-1.266 0-1.88-0.105-3.606-0.613-1.815-0.534-2.051-0.584-2.792-0.584s-0.978 0.050-2.792 0.585c-1.665 0.491-2.247 0.594-3.451 0.612-0.501 0.007-0.964 0.006-1.028-0.004zM8.851 25.262c-0.776-0.085-1.404-0.272-2.152-0.64-1.011-0.499-1.863-1.281-2.597-2.384-0.347-0.521-0.652-1.078-0.626-1.145 0.042-0.109 0.189-0.055 0.411 0.15 0.485 0.448 1.596 1.266 1.72 1.266 0.021 0 0.067 0.025 0.1 0.055 0.083 0.075 0.731 0.356 1.089 0.474 0.719 0.236 1.647 0.345 2.423 0.284 0.911-0.071 1.56-0.225 2.579-0.609 1.605-0.606 2.462-0.817 3.657-0.901 0.89-0.064 1.933 0.037 2.877 0.277 0.456 0.116 0.962 0.282 1.725 0.565 0.827 0.307 1.287 0.445 1.827 0.549 1.809 0.347 3.472 0.027 4.959-0.954 0.451-0.297 1.099-0.809 1.336-1.053 0.158-0.164 0.315-0.208 0.356-0.101 0.040 0.104-0.539 1.081-0.989 1.667-0.247 0.323-0.786 0.877-1.11 1.142-0.783 0.641-1.789 1.104-2.83 1.303-0.482 0.092-1.636 0.093-2.172 0.002-0.594-0.101-1.215-0.278-1.919-0.546-1.562-0.594-2.35-0.766-3.509-0.768-0.498 0-0.775 0.020-1.136 0.082-0.86 0.148-1.2 0.25-2.671 0.796-0.456 0.177-0.995 0.326-1.552 0.422l-0.051 0.007c-0.445 0.073-1.346 0.105-1.744 0.061z"></path>
<path fill="#fff" style="fill: var(--color1, #fff)" d="M13.291 18.938l-3.994-9.539c-0.283-0.657-0.567-1.112-0.85-1.365-0.262-0.24-0.599-0.402-0.972-0.448l-0.009-0.001v-0.346c0.049 0 0.173-0.006 0.37-0.018 0.185-0.011 0.321-0.017 0.407-0.017 0.432 0 0.875 0.046 1.331 0.138 0.456 0.081 0.887 0.276 1.294 0.588s0.752 0.8 1.036 1.469l2.495 5.961 1.664-4.424-0.647-1.538c-0.284-0.657-0.592-1.112-0.925-1.365-0.32-0.253-0.666-0.403-1.035-0.449v-0.346c0.049 0 0.16-0.006 0.333-0.018s0.302-0.017 0.388-0.017c0.431 0 0.875 0.046 1.331 0.138s0.887 0.293 1.294 0.605c0.407 0.3 0.752 0.783 1.036 1.452l2.644 6.29 3.162-8.311h0.888l-4.382 11.561h-0.739l-2.848-6.774-2.533 6.773h-0.739z"></path>
</symbol>
<symbol id="icon-map-pin" viewBox="0 0 32 32">
<path fill="#fff" style="fill: var(--color1, #fff)" d="M16 2c-6.072 0.007-10.993 4.928-11 10.999v0.001c0 0.005 0 0.010 0 0.016 0 2.486 0.833 4.777 2.235 6.61l-0.019-0.026s0.301 0.395 0.349 0.453l8.435 9.947 8.438-9.952c0.045-0.054 0.346-0.448 0.346-0.448v-0.003c1.383-1.806 2.216-4.097 2.216-6.583 0-0.005 0-0.010 0-0.015v0.001c-0.007-6.072-4.928-10.993-10.999-11h-0.001zM16 17c-2.209 0-4-1.791-4-4s1.791-4 4-4v0c2.209 0 4 1.791 4 4s-1.791 4-4 4v0z"></path>
</symbol>
<symbol id="icon-subway" viewBox="0 0 32 32">
<path fill="#fff" style="fill: var(--color1, #fff)" d="M9.643 8.587c-0.48-1.624-1.782-1.446-2.672-0.688-2.192 2.024-5.050 6.277-3.221 12.4 1.53 5.182 7.898 8.501 7.898 8.501h-7.424s-3.832-4.294-4.176-9.349c-0.435-6.389 2.123-10.416 5.093-13.045 2.79-2.47 5.442-3.205 5.442-3.205l5.418 17.76 5.421-17.76s2.65 0.736 5.437 3.205c2.97 2.627 5.528 6.656 5.094 13.046-0.342 5.053-4.176 9.347-4.176 9.347h-7.424s6.368-3.317 7.899-8.504c1.827-6.122-1.027-10.373-3.221-12.4-0.891-0.757-2.192-0.934-2.672 0.69l-6.357 20.048-6.358-20.048z"></path>
</symbol>
</defs>
</svg>
